<?xml version="1.0" encoding="UTF-8" standalone="no"?>
<svg width="494px" height="500px" viewBox="0 0 494 500" version="1.1" xmlns="http://www.w3.org/2000/svg" xmlns:xlink="http://www.w3.org/1999/xlink" xmlns:sketch="http://www.bohemiancoding.com/sketch/ns">
    <!-- Generator: Sketch Beta 3.2.2 (9983) - http://www.bohemiancoding.com/sketch -->
    <title>icon-font_04_Shape</title>
    <desc>Created with Sketch Beta.</desc>
    <defs></defs>
    <g id="Page-1" stroke="none" stroke-width="1" fill="none" fill-rule="evenodd" sketch:type="MSPage">
        <path d="M0,0 L0,500 L96.1464296,500 C94.9993616,416.009127 107.936234,342.782738 115.760403,304.715079 C130.342888,233.596825 187.832434,151.725198 187.832434,151.725198 C187.832434,151.725198 184.167942,78.6353175 238.001889,65.9968254 C291.826943,53.3321429 307.339926,87.4363095 307.339926,87.4363095 C324.662135,81.589881 364.81485,101.074802 364.81485,101.074802 C364.81485,101.074802 326.494875,103.029365 311.888678,107.875794 C304.700781,110.266667 299.055546,118.613095 295.180215,126.449405 C298.736422,128.186905 324.579736,142.533333 345.151279,201.103968 L357.609959,246.280754 C359.274739,254.03631 360.812067,262.264683 362.22629,271.038294 C369.408853,315.607143 360.438603,392.660516 335.703035,500 L494,500 L494,0 L0,0 L0,0 Z" id="icon-font_04_Shape" fill="#000000" sketch:type="MSShapeGroup"></path>
    </g>
</svg>