<?xml version="1.0" encoding="UTF-8" standalone="no"?>
<svg width="496px" height="476px" viewBox="0 0 496 476" version="1.1" xmlns="http://www.w3.org/2000/svg" xmlns:xlink="http://www.w3.org/1999/xlink" xmlns:sketch="http://www.bohemiancoding.com/sketch/ns">
    <!-- Generator: Sketch Beta 3.2.2 (9983) - http://www.bohemiancoding.com/sketch -->
    <title>icon-font_08_Linkedin</title>
    <desc>Created with Sketch Beta.</desc>
    <defs></defs>
    <g id="Page-1" stroke="none" stroke-width="1" fill="none" fill-rule="evenodd" sketch:type="MSPage">
        <g id="icon-font_08_Linkedin" sketch:type="MSLayerGroup" transform="translate(0.000000, -1.000000)" fill="#000000">
            <path d="M6.12871287,155.744825 L112.60396,155.744825 L112.60396,476.03132 L6.12871287,476.03132 L6.12871287,155.744825 Z" id="Fill-1" sketch:type="MSShapeGroup"></path>
            <path d="M462.059406,185.016402 C439.683168,160.549866 410.09901,148.326515 373.316832,148.326515 C359.782178,148.326515 347.465347,149.99266 336.381188,153.324948 C325.30198,156.677072 315.940594,161.363103 308.30198,167.388 C300.663366,173.432732 294.594059,179.031175 290.069307,184.203165 C285.777228,189.102423 281.579208,194.814918 277.5,201.286103 L277.5,155.744825 L171.331683,155.744825 L171.663366,171.260794 C171.876238,181.604773 171.970297,213.489619 171.970297,266.930206 C171.970297,320.370794 171.757426,390.066206 171.331683,476.03132 L277.5,476.03132 L277.5,297.302629 C277.5,286.318969 278.678218,277.601464 281.039604,271.135237 C285.564356,260.131742 292.386139,250.933237 301.534653,243.495093 C310.683168,236.056948 322.014851,232.337876 335.569307,232.337876 C354.074257,232.337876 367.673267,238.749557 376.391089,251.567959 C385.094059,264.39132 389.465347,282.118897 389.465347,304.740773 L389.465347,476.03132 L495.608911,476.03132 L495.608911,292.462876 C495.608911,245.275289 484.430693,209.458144 462.059406,185.016402 L462.059406,185.016402 Z" id="Fill-2" sketch:type="MSShapeGroup"></path>
            <path d="M60.0247525,1.5768866 C42.1584158,1.5768866 27.6930693,6.80838144 16.6089109,17.2515361 C5.52970297,27.709567 0,40.8998763 0,56.842299 C0,72.5714948 5.37623762,85.722134 16.1287129,96.2793402 C26.8811881,106.836546 41.0940594,112.102753 58.7277228,112.102753 L59.3663366,112.102753 C77.450495,112.102753 92.009901,106.836546 103.089109,96.2793402 C114.168317,85.722134 119.60396,72.5714948 119.391089,56.842299 C119.178218,40.8998763 113.688119,27.709567 102.935644,17.2515361 C92.1831683,6.80838144 77.8712871,1.5768866 60.0247525,1.5768866 L60.0247525,1.5768866 Z" id="Fill-3" sketch:type="MSShapeGroup"></path>
        </g>
    </g>
</svg>